<?xml version="1.0" standalone="no"?>
<!DOCTYPE svg PUBLIC "-//W3C//DTD SVG 20010904//EN"
 "http://www.w3.org/TR/2001/REC-SVG-20010904/DTD/svg10.dtd">
<svg version="1.0" xmlns="http://www.w3.org/2000/svg"
 width="51.000000pt" height="49.000000pt" viewBox="0 0 51.000000 49.000000"
 preserveAspectRatio="xMidYMid meet">

<g transform="translate(0.000000,49.000000) scale(0.100000,-0.100000)"
fill="#000000" stroke="none">
<path d="M132 382 c-106 -48 -130 -73 -103 -106 8 -10 9 -16 1 -21 -15 -10
-12 -45 5 -52 14 -5 14 -7 0 -24 -32 -34 -11 -54 96 -93 55 -20 105 -36 111
-36 5 0 51 20 102 44 51 24 102 47 114 50 12 4 22 12 22 17 0 12 1 13 -61 -17
-30 -15 -82 -39 -116 -55 l-63 -29 -80 30 c-103 38 -120 47 -120 65 0 21 21
19 116 -15 60 -21 90 -27 102 -20 9 5 63 30 120 56 56 26 102 51 102 56 0 12
-2 12 -123 -43 l-112 -50 -99 33 c-96 32 -119 49 -98 70 7 7 36 1 97 -21 98
-35 91 -36 223 25 50 24 97 44 102 44 6 0 10 8 10 18 0 14 -2 15 -10 2 -5 -8
-10 -12 -10 -8 0 7 -34 -7 -171 -70 l-46 -21 -98 34 c-54 19 -100 35 -102 35
-2 0 -3 9 -3 20 0 27 21 26 118 -10 l82 -30 97 46 c54 25 109 50 122 55 13 5
21 12 18 15 -10 11 -182 53 -212 53 -16 -1 -76 -22 -133 -47z"/>
</g>
</svg>
