<?xml version="1.0" standalone="no"?>
<!DOCTYPE svg PUBLIC "-//W3C//DTD SVG 20010904//EN"
 "http://www.w3.org/TR/2001/REC-SVG-20010904/DTD/svg10.dtd">
<svg version="1.0" xmlns="http://www.w3.org/2000/svg"
 width="52.000000pt" height="36.000000pt" viewBox="0 0 52.000000 36.000000"
 preserveAspectRatio="xMidYMid meet">
<metadata>
Created by potrace 1.14, written by Peter Selinger 2001-2017
</metadata>
<g transform="translate(0.000000,36.000000) scale(0.100000,-0.100000)"
fill="#000000" stroke="none">
<path d="M158 349 c-10 -5 -18 -19 -18 -29 0 -18 -7 -20 -65 -20 l-65 0 0
-117 0 -118 44 91 c24 50 51 94 60 97 10 4 81 7 158 7 127 0 139 2 136 18 -3
14 -16 18 -66 20 -45 2 -62 7 -62 17 0 38 -78 60 -122 34z"/>
<path d="M122 228 c-21 -27 -111 -216 -105 -222 4 -3 91 -6 193 -6 159 0 190
2 201 16 21 25 108 212 101 218 -3 3 -90 6 -192 6 -138 0 -190 -3 -198 -12z"/>
</g>
</svg>
