<?xml version="1.0" standalone="no"?>
<!DOCTYPE svg PUBLIC "-//W3C//DTD SVG 20010904//EN"
 "http://www.w3.org/TR/2001/REC-SVG-20010904/DTD/svg10.dtd">
<svg version="1.0" xmlns="http://www.w3.org/2000/svg"
 width="44.000000pt" height="44.000000pt" viewBox="0 0 44.000000 44.000000"
 preserveAspectRatio="xMidYMid meet">
<metadata>
Created by potrace 1.14, written by Peter Selinger 2001-2017
</metadata>
<g transform="translate(0.000000,44.000000) scale(0.100000,-0.100000)"
fill="#000000" stroke="none">
<path d="M180 409 c-24 -27 -33 -31 -61 -25 -43 8 -59 -7 -59 -60 0 -35 -5
-47 -24 -59 -43 -29 -44 -62 -1 -85 20 -11 25 -22 27 -64 l3 -51 51 -3 c42 -2
53 -7 64 -27 20 -37 49 -39 79 -4 20 23 34 29 67 29 50 0 66 16 58 59 -6 28
-2 37 25 61 39 36 39 53 0 81 -28 20 -30 26 -25 60 8 51 -12 71 -63 63 -34 -5
-40 -3 -60 25 -28 39 -45 39 -81 0z m95 -134 c43 -43 26 -115 -31 -129 -59
-15 -113 39 -98 98 14 57 86 74 129 31z"/>
</g>
</svg>
